<svg width="106" height="119" viewBox="0 0 106 119" fill="none" xmlns="http://www.w3.org/2000/svg">
<path d="M96.1165 47.5855H47.6165V54.0855H58.1165V78.5855C58.5165 86.1855 50.9498 90.0855 47.1165 91.0855C60.1165 94.5855 67.7446 84.1283 67.6165 78.5855V54.0855L78.1165 53.9696V81.0855L85.1165 74.5855V54.0855H96.1165V47.5855Z" fill="#FDFDFD" stroke="#FDFDFD"/>
<path d="M104.617 98.5855L89.1165 83.0855C30.9772 131.519 -0.934575 69.6112 3.11652 43.0855C-13.3835 118.586 70.96 137.954 104.617 98.5855Z" fill="#FDFDFD" stroke="#FDFDFD"/>
<path d="M103.617 19.5855C33.9388 -39.9504 -32.6222 59.9036 41.1165 90.5852C5.43748 63.2926 40.5299 -3.11006 88.1165 37.5855L103.617 19.5855Z" fill="#FDFDFD" stroke="#FDFDFD"/>
<path d="M38.6165 85.0856C38.6165 85.0856 44.049 78.8254 44.1165 78.5856C44.184 78.3457 52.6238 85.8094 54.6165 82.5856C49.411 91.3823 41.7832 87.9189 38.6165 85.0856Z" fill="#FDFDFD" stroke="#FDFDFD"/>
</svg>
