<svg width="216" height="119" viewBox="0 0 216 119" fill="none" xmlns="http://www.w3.org/2000/svg">
<path d="M96.1165 47.5855H47.6165V54.0855H58.1165V78.5855C58.5165 86.1855 50.9498 90.0855 47.1165 91.0855C60.1165 94.5855 67.7446 84.1283 67.6165 78.5855V54.0855L78.1165 53.9696V81.0855L85.1165 74.5855V54.0855H96.1165V47.5855Z" fill="#141218" stroke="#141218"/>
<path d="M104.617 98.5855L89.1165 83.0855C30.9772 131.519 -0.934575 69.6112 3.11652 43.0855C-13.3835 118.586 70.96 137.954 104.617 98.5855Z" fill="#141218" stroke="#141218"/>
<path d="M103.617 19.5855C33.9388 -39.9504 -32.6222 59.9036 41.1165 90.5852C5.43746 63.2926 40.5299 -3.11006 88.1165 37.5855L103.617 19.5855Z" fill="#141218" stroke="#141218"/>
<path d="M38.6165 85.0856C38.6165 85.0856 44.049 78.8254 44.1165 78.5856C44.184 78.3457 52.6238 85.8094 54.6165 82.5856C49.411 91.3823 41.7832 87.9189 38.6165 85.0856Z" fill="#141218" stroke="#141218"/>
<path d="M113.413 81.0855V76.0455L112.933 74.9415V65.9175C112.933 64.3175 112.437 63.0695 111.445 62.1735C110.485 61.2775 108.997 60.8295 106.981 60.8295C105.605 60.8295 104.245 61.0535 102.901 61.5015C101.589 61.9175 100.469 62.4935 99.5405 63.2295L96.8525 57.9975C98.2605 57.0055 99.9565 56.2375 101.941 55.6935C103.925 55.1495 105.941 54.8775 107.989 54.8775C111.925 54.8775 114.981 55.8055 117.157 57.6615C119.333 59.5175 120.421 62.4135 120.421 66.3495V81.0855H113.413ZM105.541 81.4695C103.525 81.4695 101.797 81.1335 100.357 80.4615C98.9165 79.7575 97.8125 78.8135 97.0445 77.6295C96.2765 76.4455 95.8925 75.1175 95.8925 73.6455C95.8925 72.1095 96.2605 70.7655 96.9965 69.6135C97.7645 68.4615 98.9645 67.5655 100.597 66.9255C102.229 66.2535 104.357 65.9175 106.981 65.9175H113.845V70.2855H107.797C106.037 70.2855 104.821 70.5735 104.149 71.1495C103.509 71.7255 103.189 72.4455 103.189 73.3095C103.189 74.2695 103.557 75.0375 104.293 75.6135C105.061 76.1575 106.101 76.4295 107.413 76.4295C108.661 76.4295 109.781 76.1415 110.773 75.5655C111.765 74.9575 112.485 74.0775 112.933 72.9255L114.085 76.3815C113.541 78.0455 112.549 79.3095 111.109 80.1735C109.669 81.0375 107.813 81.4695 105.541 81.4695ZM129.993 90.7815C128.649 90.7815 127.321 90.5735 126.009 90.1575C124.697 89.7415 123.625 89.1655 122.793 88.4295L125.529 83.1015C126.105 83.6135 126.761 84.0135 127.497 84.3015C128.265 84.5895 129.017 84.7335 129.753 84.7335C130.809 84.7335 131.641 84.4775 132.249 83.9655C132.889 83.4855 133.465 82.6695 133.977 81.5175L135.321 78.3495L135.897 77.5335L145.161 55.2615H152.361L140.697 82.6695C139.865 84.7495 138.905 86.3815 137.817 87.5655C136.761 88.7495 135.577 89.5815 134.265 90.0615C132.985 90.5415 131.561 90.7815 129.993 90.7815ZM134.409 82.0935L122.889 55.2615H130.617L139.545 76.8615L134.409 82.0935ZM170.413 81.0855V76.0455L169.933 74.9415V65.9175C169.933 64.3175 169.437 63.0695 168.445 62.1735C167.485 61.2775 165.997 60.8295 163.981 60.8295C162.605 60.8295 161.245 61.0535 159.901 61.5015C158.589 61.9175 157.469 62.4935 156.541 63.2295L153.853 57.9975C155.261 57.0055 156.957 56.2375 158.941 55.6935C160.925 55.1495 162.941 54.8775 164.989 54.8775C168.925 54.8775 171.981 55.8055 174.157 57.6615C176.333 59.5175 177.421 62.4135 177.421 66.3495V81.0855H170.413ZM162.541 81.4695C160.525 81.4695 158.797 81.1335 157.357 80.4615C155.917 79.7575 154.813 78.8135 154.045 77.6295C153.277 76.4455 152.893 75.1175 152.893 73.6455C152.893 72.1095 153.261 70.7655 153.997 69.6135C154.765 68.4615 155.965 67.5655 157.597 66.9255C159.229 66.2535 161.357 65.9175 163.981 65.9175H170.845V70.2855H164.797C163.037 70.2855 161.821 70.5735 161.149 71.1495C160.509 71.7255 160.189 72.4455 160.189 73.3095C160.189 74.2695 160.557 75.0375 161.293 75.6135C162.061 76.1575 163.101 76.4295 164.413 76.4295C165.661 76.4295 166.781 76.1415 167.773 75.5655C168.765 74.9575 169.485 74.0775 169.933 72.9255L171.085 76.3815C170.541 78.0455 169.549 79.3095 168.109 80.1735C166.669 81.0375 164.813 81.4695 162.541 81.4695ZM196.529 90.7815C194.097 90.7815 191.745 90.4775 189.473 89.8695C187.233 89.2935 185.361 88.4135 183.857 87.2295L186.833 81.8535C187.921 82.7495 189.297 83.4535 190.961 83.9655C192.657 84.5095 194.321 84.7815 195.953 84.7815C198.609 84.7815 200.529 84.1895 201.713 83.0055C202.929 81.8215 203.537 80.0615 203.537 77.7255V73.8375L204.017 67.3575L203.921 60.8295V55.2615H211.025V76.7655C211.025 81.5655 209.777 85.1015 207.281 87.3735C204.785 89.6455 201.201 90.7815 196.529 90.7815ZM195.377 79.8375C192.977 79.8375 190.801 79.3255 188.849 78.3015C186.929 77.2455 185.377 75.7895 184.193 73.9335C183.041 72.0455 182.465 69.8535 182.465 67.3575C182.465 64.8295 183.041 62.6375 184.193 60.7815C185.377 58.8935 186.929 57.4375 188.849 56.4135C190.801 55.3895 192.977 54.8775 195.377 54.8775C197.553 54.8775 199.473 55.3255 201.137 56.2215C202.801 57.0855 204.097 58.4455 205.025 60.3015C205.953 62.1255 206.417 64.4775 206.417 67.3575C206.417 70.2055 205.953 72.5575 205.025 74.4135C204.097 76.2375 202.801 77.5975 201.137 78.4935C199.473 79.3895 197.553 79.8375 195.377 79.8375ZM196.865 73.6935C198.177 73.6935 199.345 73.4375 200.369 72.9255C201.393 72.3815 202.193 71.6295 202.769 70.6695C203.345 69.7095 203.633 68.6055 203.633 67.3575C203.633 66.0775 203.345 64.9735 202.769 64.0455C202.193 63.0855 201.393 62.3495 200.369 61.8375C199.345 61.2935 198.177 61.0215 196.865 61.0215C195.553 61.0215 194.385 61.2935 193.361 61.8375C192.337 62.3495 191.521 63.0855 190.913 64.0455C190.337 64.9735 190.049 66.0775 190.049 67.3575C190.049 68.6055 190.337 69.7095 190.913 70.6695C191.521 71.6295 192.337 72.3815 193.361 72.9255C194.385 73.4375 195.553 73.6935 196.865 73.6935Z" fill="#141218"/>
</svg>
